{
	"asset":{
		"generator":"Khronos glTF Blender I/O v3.6.28",
		"version":"2.0"
	},
	"scene":0,
	"scenes":[
		{
			"name":"Scene",
			"nodes":[
				11
			]
		}
	],
	"nodes":[
		{
			"name":"Head",
			"rotation":[
				0.03734041750431061,
				-0.0004727250779978931,
				0.021910758689045906,
				0.9990622997283936
			],
			"scale":[
				0.9999999403953552,
				0.9999998807907104,
				1
			],
			"translation":[
				2.5174813345074654e-09,
				1.3567098379135132,
				2.799424692057073e-08
			]
		},
		{
			"name":"headtop",
			"rotation":[
				0.004896095488220453,
				-0.0019039686303585768,
				0.008155510760843754,
				0.9999529719352722
			],
			"scale":[
				0.9999999403953552,
				1,
				1
			],
			"translation":[
				-0.034762926399707794,
				2.1471269130706787,
				0.05917893722653389
			]
		},
		{
			"name":"headtop_end",
			"rotation":[
				0.004896071739494801,
				-0.0019039682811126113,
				0.008155511692166328,
				0.9999529719352722
			],
			"scale":[
				0.9999999403953552,
				0.9999997615814209,
				1
			],
			"translation":[
				-0.05246150493621826,
				3.230811595916748,
				0.06975829601287842
			]
		},
		{
			"name":"headsocket",
			"rotation":[
				0.795602023601532,
				-0.16769453883171082,
				-0.2919418513774872,
				0.5036526322364807
			],
			"scale":[
				0.9999999403953552,
				1.0000001192092896,
				1.0000001192092896
			],
			"translation":[
				-0.034762926399707794,
				2.1471269130706787,
				0.05917893722653389
			]
		},
		{
			"name":"topmouth",
			"rotation":[
				0.7087340950965881,
				-0.22325734794139862,
				-0.2561776638031006,
				0.6182436347007751
			],
			"scale":[
				1,
				0.9999999403953552,
				0.9999998211860657
			],
			"translation":[
				-0.020822355523705482,
				1.923756718635559,
				0.5194653868675232
			]
		},
		{
			"name":"topmouth_end",
			"rotation":[
				0.7087340950965881,
				-0.22325743734836578,
				-0.25617772340774536,
				0.6182435750961304
			],
			"scale":[
				1,
				0.9999999403953552,
				0.9999998807907104
			],
			"translation":[
				-0.02058880589902401,
				1.818047285079956,
				1.2903165817260742
			]
		},
		{
			"name":"mouth",
			"rotation":[
				0.9212759137153625,
				-0.0011106460588052869,
				-0.38630038499832153,
				0.04496154934167862
			],
			"scale":[
				1.000002145767212,
				1,
				1.0000141859054565
			],
			"translation":[
				-0.020822355523705482,
				1.923756718635559,
				0.5194653868675232
			]
		},
		{
			"name":"jaw",
			"rotation":[
				0.6602159142494202,
				-0.26630899310112,
				-0.2729218900203705,
				0.6470766067504883
			],
			"scale":[
				0.9999998807907104,
				0.9999998807907104,
				0.9999999403953552
			],
			"translation":[
				-0.002451316686347127,
				1.3640838861465454,
				0.5665005445480347
			]
		},
		{
			"name":"jaw_end",
			"rotation":[
				0.6602159738540649,
				-0.2663090229034424,
				-0.2729218900203705,
				0.6470765471458435
			],
			"scale":[
				0.9999999403953552,
				0.9999999403953552,
				1
			],
			"translation":[
				-0.0012248364510014653,
				1.3477731943130493,
				1.352648138999939
			]
		},
		{
			"children":[
				0,
				1,
				2,
				3,
				4,
				5,
				6,
				7,
				8
			],
			"name":"Neck",
			"rotation":[
				0.08715249598026276,
				-0.00037474322016350925,
				-0.003778270212933421,
				0.9961877465248108
			],
			"scale":[
				0.9999998807907104,
				1,
				1
			],
			"translation":[
				0.015131315216422081,
				-1.946670413017273,
				-0.8138940334320068
			]
		},
		{
			"mesh":0,
			"name":"Skull",
			"skin":0
		},
		{
			"children":[
				10,
				9
			],
			"name":"ArmatureBODY",
			"rotation":[
				-0.04023320600390434,
				0,
				0,
				0.9991903305053711
			],
			"scale":[
				1.1348539590835571,
				1.1348539590835571,
				1.1348539590835571
			],
			"translation":[
				-0.009242621250450611,
				0.003818511962890625,
				0.8301916122436523
			]
		}
	],
	"animations":[
		{
			"channels":[
				{
					"sampler":0,
					"target":{
						"node":9,
						"path":"translation"
					}
				},
				{
					"sampler":1,
					"target":{
						"node":9,
						"path":"rotation"
					}
				},
				{
					"sampler":2,
					"target":{
						"node":9,
						"path":"scale"
					}
				},
				{
					"sampler":3,
					"target":{
						"node":0,
						"path":"translation"
					}
				},
				{
					"sampler":4,
					"target":{
						"node":0,
						"path":"rotation"
					}
				},
				{
					"sampler":5,
					"target":{
						"node":0,
						"path":"scale"
					}
				},
				{
					"sampler":6,
					"target":{
						"node":1,
						"path":"translation"
					}
				},
				{
					"sampler":7,
					"target":{
						"node":1,
						"path":"rotation"
					}
				},
				{
					"sampler":8,
					"target":{
						"node":1,
						"path":"scale"
					}
				},
				{
					"sampler":9,
					"target":{
						"node":2,
						"path":"translation"
					}
				},
				{
					"sampler":10,
					"target":{
						"node":2,
						"path":"rotation"
					}
				},
				{
					"sampler":11,
					"target":{
						"node":2,
						"path":"scale"
					}
				},
				{
					"sampler":12,
					"target":{
						"node":3,
						"path":"translation"
					}
				},
				{
					"sampler":13,
					"target":{
						"node":3,
						"path":"rotation"
					}
				},
				{
					"sampler":14,
					"target":{
						"node":3,
						"path":"scale"
					}
				},
				{
					"sampler":15,
					"target":{
						"node":4,
						"path":"translation"
					}
				},
				{
					"sampler":16,
					"target":{
						"node":4,
						"path":"rotation"
					}
				},
				{
					"sampler":17,
					"target":{
						"node":4,
						"path":"scale"
					}
				},
				{
					"sampler":18,
					"target":{
						"node":5,
						"path":"translation"
					}
				},
				{
					"sampler":19,
					"target":{
						"node":5,
						"path":"rotation"
					}
				},
				{
					"sampler":20,
					"target":{
						"node":5,
						"path":"scale"
					}
				},
				{
					"sampler":21,
					"target":{
						"node":6,
						"path":"translation"
					}
				},
				{
					"sampler":22,
					"target":{
						"node":6,
						"path":"rotation"
					}
				},
				{
					"sampler":23,
					"target":{
						"node":6,
						"path":"scale"
					}
				},
				{
					"sampler":24,
					"target":{
						"node":7,
						"path":"translation"
					}
				},
				{
					"sampler":25,
					"target":{
						"node":7,
						"path":"rotation"
					}
				},
				{
					"sampler":26,
					"target":{
						"node":7,
						"path":"scale"
					}
				},
				{
					"sampler":27,
					"target":{
						"node":8,
						"path":"translation"
					}
				},
				{
					"sampler":28,
					"target":{
						"node":8,
						"path":"rotation"
					}
				},
				{
					"sampler":29,
					"target":{
						"node":8,
						"path":"scale"
					}
				},
				{
					"sampler":30,
					"target":{
						"node":11,
						"path":"translation"
					}
				},
				{
					"sampler":31,
					"target":{
						"node":11,
						"path":"rotation"
					}
				},
				{
					"sampler":32,
					"target":{
						"node":11,
						"path":"scale"
					}
				}
			],
			"name":"Armature|Armature|DefaultSkeletonPose",
			"samplers":[
				{
					"input":13,
					"interpolation":"STEP",
					"output":14
				},
				{
					"input":13,
					"interpolation":"STEP",
					"output":15
				},
				{
					"input":13,
					"interpolation":"STEP",
					"output":16
				},
				{
					"input":13,
					"interpolation":"STEP",
					"output":17
				},
				{
					"input":13,
					"interpolation":"STEP",
					"output":18
				},
				{
					"input":13,
					"interpolation":"STEP",
					"output":19
				},
				{
					"input":13,
					"interpolation":"STEP",
					"output":20
				},
				{
					"input":13,
					"interpolation":"STEP",
					"output":21
				},
				{
					"input":13,
					"interpolation":"STEP",
					"output":22
				},
				{
					"input":13,
					"interpolation":"STEP",
					"output":23
				},
				{
					"input":13,
					"interpolation":"STEP",
					"output":24
				},
				{
					"input":13,
					"interpolation":"STEP",
					"output":25
				},
				{
					"input":13,
					"interpolation":"STEP",
					"output":26
				},
				{
					"input":13,
					"interpolation":"STEP",
					"output":27
				},
				{
					"input":13,
					"interpolation":"STEP",
					"output":28
				},
				{
					"input":13,
					"interpolation":"STEP",
					"output":29
				},
				{
					"input":13,
					"interpolation":"STEP",
					"output":30
				},
				{
					"input":13,
					"interpolation":"STEP",
					"output":31
				},
				{
					"input":13,
					"interpolation":"STEP",
					"output":32
				},
				{
					"input":13,
					"interpolation":"STEP",
					"output":33
				},
				{
					"input":13,
					"interpolation":"STEP",
					"output":34
				},
				{
					"input":13,
					"interpolation":"STEP",
					"output":35
				},
				{
					"input":13,
					"interpolation":"STEP",
					"output":36
				},
				{
					"input":13,
					"interpolation":"STEP",
					"output":37
				},
				{
					"input":13,
					"interpolation":"STEP",
					"output":38
				},
				{
					"input":13,
					"interpolation":"STEP",
					"output":39
				},
				{
					"input":13,
					"interpolation":"STEP",
					"output":40
				},
				{
					"input":13,
					"interpolation":"STEP",
					"output":41
				},
				{
					"input":13,
					"interpolation":"STEP",
					"output":42
				},
				{
					"input":13,
					"interpolation":"STEP",
					"output":43
				},
				{
					"input":13,
					"interpolation":"STEP",
					"output":44
				},
				{
					"input":13,
					"interpolation":"STEP",
					"output":45
				},
				{
					"input":13,
					"interpolation":"STEP",
					"output":46
				}
			]
		}
	],
	"materials":[
		{
			"doubleSided":true,
			"name":"Skeleton",
			"pbrMetallicRoughness":{
				"baseColorTexture":{
					"index":0
				},
				"metallicRoughnessTexture":{
					"index":1
				}
			}
		},
		{
			"doubleSided":true,
			"name":"SkeletonGear",
			"pbrMetallicRoughness":{
				"baseColorTexture":{
					"index":2
				},
				"metallicRoughnessTexture":{
					"index":3
				}
			}
		}
	],
	"meshes":[
		{
			"name":"Cube_001",
			"primitives":[
				{
					"attributes":{
						"POSITION":0,
						"NORMAL":1,
						"TEXCOORD_0":2,
						"JOINTS_0":3,
						"WEIGHTS_0":4
					},
					"indices":5,
					"material":0
				},
				{
					"attributes":{
						"POSITION":6,
						"NORMAL":7,
						"TEXCOORD_0":8,
						"JOINTS_0":9,
						"WEIGHTS_0":10
					},
					"indices":11,
					"material":1
				}
			]
		}
	],
	"textures":[
		{
			"sampler":0,
			"source":0
		},
		{
			"sampler":0,
			"source":1
		},
		{
			"sampler":0,
			"source":2
		},
		{
			"sampler":0,
			"source":3
		}
	],
	"images":[
		{
			"mimeType":"image/png",
			"name":"SkeleAlbedo",
			"uri":"SkeleAlbedo.png"
		},
		{
			"mimeType":"image/png",
			"name":"SkeletonMetal-SkeleTonRoughness.png",
			"uri":"SkeletonMetal-SkeleTonRoughness_png.png"
		},
		{
			"mimeType":"image/png",
			"name":"SkeletonGearAlbedo",
			"uri":"SkeletonGearAlbedo.png"
		},
		{
			"mimeType":"image/png",
			"name":"Skeletongearmetal.png-SkeletonGearRoughness.png",
			"uri":"Skeletongearmetal_png-SkeletonGearRoughness_png.png"
		}
	],
	"skins":[
		{
			"inverseBindMatrices":12,
			"joints":[
				9,
				0,
				1,
				2,
				3,
				4,
				5,
				6,
				7,
				8
			],
			"name":"ArmatureBODY"
		}
	],
	"accessors":[
		{
			"bufferView":0,
			"componentType":5126,
			"count":5422,
			"max":[
				0.9757040739059448,
				1.6720877885818481,
				1.9435824155807495
			],
			"min":[
				-1.0610086917877197,
				-1.115768551826477,
				-0.45133519172668457
			],
			"type":"VEC3"
		},
		{
			"bufferView":1,
			"componentType":5126,
			"count":5422,
			"type":"VEC3"
		},
		{
			"bufferView":2,
			"componentType":5126,
			"count":5422,
			"type":"VEC2"
		},
		{
			"bufferView":3,
			"componentType":5121,
			"count":5422,
			"type":"VEC4"
		},
		{
			"bufferView":4,
			"componentType":5126,
			"count":5422,
			"type":"VEC4"
		},
		{
			"bufferView":5,
			"componentType":5123,
			"count":28038,
			"type":"SCALAR"
		},
		{
			"bufferView":6,
			"componentType":5126,
			"count":1684,
			"max":[
				2.464641809463501,
				2.4054110050201416,
				2.3313586711883545
			],
			"min":[
				-2.4812300205230713,
				0.45465967059135437,
				-1.6633496284484863
			],
			"type":"VEC3"
		},
		{
			"bufferView":7,
			"componentType":5126,
			"count":1684,
			"type":"VEC3"
		},
		{
			"bufferView":8,
			"componentType":5126,
			"count":1684,
			"type":"VEC2"
		},
		{
			"bufferView":9,
			"componentType":5121,
			"count":1684,
			"type":"VEC4"
		},
		{
			"bufferView":10,
			"componentType":5126,
			"count":1684,
			"type":"VEC4"
		},
		{
			"bufferView":11,
			"componentType":5123,
			"count":7032,
			"type":"SCALAR"
		},
		{
			"bufferView":12,
			"componentType":5126,
			"count":10,
			"type":"MAT4"
		},
		{
			"bufferView":13,
			"componentType":5126,
			"count":2,
			"max":[
				3.3333333333333335
			],
			"min":[
				0.03333333333333333
			],
			"type":"SCALAR"
		},
		{
			"bufferView":14,
			"componentType":5126,
			"count":2,
			"type":"VEC3"
		},
		{
			"bufferView":15,
			"componentType":5126,
			"count":2,
			"type":"VEC4"
		},
		{
			"bufferView":16,
			"componentType":5126,
			"count":2,
			"type":"VEC3"
		},
		{
			"bufferView":17,
			"componentType":5126,
			"count":2,
			"type":"VEC3"
		},
		{
			"bufferView":18,
			"componentType":5126,
			"count":2,
			"type":"VEC4"
		},
		{
			"bufferView":19,
			"componentType":5126,
			"count":2,
			"type":"VEC3"
		},
		{
			"bufferView":20,
			"componentType":5126,
			"count":2,
			"type":"VEC3"
		},
		{
			"bufferView":21,
			"componentType":5126,
			"count":2,
			"type":"VEC4"
		},
		{
			"bufferView":22,
			"componentType":5126,
			"count":2,
			"type":"VEC3"
		},
		{
			"bufferView":23,
			"componentType":5126,
			"count":2,
			"type":"VEC3"
		},
		{
			"bufferView":24,
			"componentType":5126,
			"count":2,
			"type":"VEC4"
		},
		{
			"bufferView":25,
			"componentType":5126,
			"count":2,
			"type":"VEC3"
		},
		{
			"bufferView":26,
			"componentType":5126,
			"count":2,
			"type":"VEC3"
		},
		{
			"bufferView":27,
			"componentType":5126,
			"count":2,
			"type":"VEC4"
		},
		{
			"bufferView":28,
			"componentType":5126,
			"count":2,
			"type":"VEC3"
		},
		{
			"bufferView":29,
			"componentType":5126,
			"count":2,
			"type":"VEC3"
		},
		{
			"bufferView":30,
			"componentType":5126,
			"count":2,
			"type":"VEC4"
		},
		{
			"bufferView":31,
			"componentType":5126,
			"count":2,
			"type":"VEC3"
		},
		{
			"bufferView":32,
			"componentType":5126,
			"count":2,
			"type":"VEC3"
		},
		{
			"bufferView":33,
			"componentType":5126,
			"count":2,
			"type":"VEC4"
		},
		{
			"bufferView":34,
			"componentType":5126,
			"count":2,
			"type":"VEC3"
		},
		{
			"bufferView":35,
			"componentType":5126,
			"count":2,
			"type":"VEC3"
		},
		{
			"bufferView":36,
			"componentType":5126,
			"count":2,
			"type":"VEC4"
		},
		{
			"bufferView":37,
			"componentType":5126,
			"count":2,
			"type":"VEC3"
		},
		{
			"bufferView":38,
			"componentType":5126,
			"count":2,
			"type":"VEC3"
		},
		{
			"bufferView":39,
			"componentType":5126,
			"count":2,
			"type":"VEC4"
		},
		{
			"bufferView":40,
			"componentType":5126,
			"count":2,
			"type":"VEC3"
		},
		{
			"bufferView":41,
			"componentType":5126,
			"count":2,
			"type":"VEC3"
		},
		{
			"bufferView":42,
			"componentType":5126,
			"count":2,
			"type":"VEC4"
		},
		{
			"bufferView":43,
			"componentType":5126,
			"count":2,
			"type":"VEC3"
		},
		{
			"bufferView":44,
			"componentType":5126,
			"count":2,
			"type":"VEC3"
		},
		{
			"bufferView":45,
			"componentType":5126,
			"count":2,
			"type":"VEC4"
		},
		{
			"bufferView":46,
			"componentType":5126,
			"count":2,
			"type":"VEC3"
		}
	],
	"bufferViews":[
		{
			"buffer":0,
			"byteLength":65064,
			"byteOffset":0,
			"target":34962
		},
		{
			"buffer":0,
			"byteLength":65064,
			"byteOffset":65064,
			"target":34962
		},
		{
			"buffer":0,
			"byteLength":43376,
			"byteOffset":130128,
			"target":34962
		},
		{
			"buffer":0,
			"byteLength":21688,
			"byteOffset":173504,
			"target":34962
		},
		{
			"buffer":0,
			"byteLength":86752,
			"byteOffset":195192,
			"target":34962
		},
		{
			"buffer":0,
			"byteLength":56076,
			"byteOffset":281944,
			"target":34963
		},
		{
			"buffer":0,
			"byteLength":20208,
			"byteOffset":338020,
			"target":34962
		},
		{
			"buffer":0,
			"byteLength":20208,
			"byteOffset":358228,
			"target":34962
		},
		{
			"buffer":0,
			"byteLength":13472,
			"byteOffset":378436,
			"target":34962
		},
		{
			"buffer":0,
			"byteLength":6736,
			"byteOffset":391908,
			"target":34962
		},
		{
			"buffer":0,
			"byteLength":26944,
			"byteOffset":398644,
			"target":34962
		},
		{
			"buffer":0,
			"byteLength":14064,
			"byteOffset":425588,
			"target":34963
		},
		{
			"buffer":0,
			"byteLength":640,
			"byteOffset":439652
		},
		{
			"buffer":0,
			"byteLength":8,
			"byteOffset":440292
		},
		{
			"buffer":0,
			"byteLength":24,
			"byteOffset":440300
		},
		{
			"buffer":0,
			"byteLength":32,
			"byteOffset":440324
		},
		{
			"buffer":0,
			"byteLength":24,
			"byteOffset":440356
		},
		{
			"buffer":0,
			"byteLength":24,
			"byteOffset":440380
		},
		{
			"buffer":0,
			"byteLength":32,
			"byteOffset":440404
		},
		{
			"buffer":0,
			"byteLength":24,
			"byteOffset":440436
		},
		{
			"buffer":0,
			"byteLength":24,
			"byteOffset":440460
		},
		{
			"buffer":0,
			"byteLength":32,
			"byteOffset":440484
		},
		{
			"buffer":0,
			"byteLength":24,
			"byteOffset":440516
		},
		{
			"buffer":0,
			"byteLength":24,
			"byteOffset":440540
		},
		{
			"buffer":0,
			"byteLength":32,
			"byteOffset":440564
		},
		{
			"buffer":0,
			"byteLength":24,
			"byteOffset":440596
		},
		{
			"buffer":0,
			"byteLength":24,
			"byteOffset":440620
		},
		{
			"buffer":0,
			"byteLength":32,
			"byteOffset":440644
		},
		{
			"buffer":0,
			"byteLength":24,
			"byteOffset":440676
		},
		{
			"buffer":0,
			"byteLength":24,
			"byteOffset":440700
		},
		{
			"buffer":0,
			"byteLength":32,
			"byteOffset":440724
		},
		{
			"buffer":0,
			"byteLength":24,
			"byteOffset":440756
		},
		{
			"buffer":0,
			"byteLength":24,
			"byteOffset":440780
		},
		{
			"buffer":0,
			"byteLength":32,
			"byteOffset":440804
		},
		{
			"buffer":0,
			"byteLength":24,
			"byteOffset":440836
		},
		{
			"buffer":0,
			"byteLength":24,
			"byteOffset":440860
		},
		{
			"buffer":0,
			"byteLength":32,
			"byteOffset":440884
		},
		{
			"buffer":0,
			"byteLength":24,
			"byteOffset":440916
		},
		{
			"buffer":0,
			"byteLength":24,
			"byteOffset":440940
		},
		{
			"buffer":0,
			"byteLength":32,
			"byteOffset":440964
		},
		{
			"buffer":0,
			"byteLength":24,
			"byteOffset":440996
		},
		{
			"buffer":0,
			"byteLength":24,
			"byteOffset":441020
		},
		{
			"buffer":0,
			"byteLength":32,
			"byteOffset":441044
		},
		{
			"buffer":0,
			"byteLength":24,
			"byteOffset":441076
		},
		{
			"buffer":0,
			"byteLength":24,
			"byteOffset":441100
		},
		{
			"buffer":0,
			"byteLength":32,
			"byteOffset":441124
		},
		{
			"buffer":0,
			"byteLength":24,
			"byteOffset":441156
		}
	],
	"samplers":[
		{
			"magFilter":9729,
			"minFilter":9987
		}
	],
	"buffers":[
		{
			"byteLength":441180,
			"uri":"Cap36-NoRoot-Small.bin"
		}
	]
}
